<mxfile host="app.diagrams.net" modified="2023-10-06T07:22:22.063Z" agent="Mozilla/5.0 (Windows NT 10.0; Win64; x64) AppleWebKit/537.36 (KHTML, like Gecko) Chrome/117.0.0.0 Safari/537.36 Edg/117.0.2045.47" etag="nJYb-nJGJHNrGS4Grl2X" version="22.0.3" type="github">
  <diagram name="Page-1" id="aaaa8250-4180-3840-79b5-4cada1eebb92">
    <mxGraphModel dx="3880" dy="1687" grid="0" gridSize="10" guides="1" tooltips="1" connect="1" arrows="1" fold="1" page="0" pageScale="1" pageWidth="850" pageHeight="1100" background="none" math="0" shadow="0">
      <root>
        <mxCell id="0" />
        <mxCell id="1" parent="0" />
        <mxCell id="d5ac148becb70bc-7" value="" style="verticalLabelPosition=bottom;html=1;verticalAlign=top;strokeWidth=1;dashed=0;shape=mxgraph.aws3d.flatDoubleEdge;fillColor=#A62495;aspect=fixed;rounded=1;shadow=0;comic=0;fontFamily=Verdana;fontSize=12;flipV=1;strokeColor=#9673a6;" parent="1" vertex="1">
          <mxGeometry x="1032" y="1116" width="696.38" height="397.08" as="geometry" />
        </mxCell>
        <mxCell id="1a8abee3a6cfdf20-38" value="" style="verticalLabelPosition=bottom;html=1;verticalAlign=top;strokeWidth=1;dashed=0;shape=mxgraph.aws3d.flatDoubleEdge;fillColor=#d5e8d4;aspect=fixed;rounded=1;shadow=0;comic=0;fontFamily=Verdana;fontSize=12;flipV=1;strokeColor=#82b366;" parent="1" vertex="1">
          <mxGeometry x="685" y="912" width="715.06" height="407.79" as="geometry" />
        </mxCell>
        <mxCell id="1a8abee3a6cfdf20-28" value="" style="verticalLabelPosition=bottom;html=1;verticalAlign=top;strokeWidth=1;dashed=0;shape=mxgraph.aws3d.flatDoubleEdge;fillColor=#A62495;aspect=fixed;rounded=1;shadow=0;comic=0;fontFamily=Verdana;fontSize=12;flipV=1;" parent="1" vertex="1">
          <mxGeometry x="357" y="711" width="730.29" height="416.49" as="geometry" />
        </mxCell>
        <mxCell id="1a8abee3a6cfdf20-3" value="" style="edgeStyle=isometricEdgeStyle;endArrow=none;html=1;labelBackgroundColor=none;strokeWidth=5;fontFamily=Verdana;fontSize=12" parent="1" source="1a8abee3a6cfdf20-1" edge="1">
          <mxGeometry width="50" height="100" relative="1" as="geometry">
            <mxPoint x="975" y="1099" as="sourcePoint" />
            <mxPoint x="744.37" y="963" as="targetPoint" />
            <Array as="points" />
          </mxGeometry>
        </mxCell>
        <mxCell id="1a8abee3a6cfdf20-4" value="" style="verticalLabelPosition=bottom;html=1;verticalAlign=top;strokeWidth=1;dashed=0;shape=mxgraph.aws3d.dynamoDb;fillColor=#ECECEC;strokeColor=#5E5E5E;aspect=fixed;rounded=1;shadow=0;comic=0;fontSize=12" parent="1" vertex="1">
          <mxGeometry x="-692" y="1178" width="181.5" height="210" as="geometry" />
        </mxCell>
        <mxCell id="1a8abee3a6cfdf20-5" value="" style="edgeStyle=isometricEdgeStyle;endArrow=none;html=1;labelBackgroundColor=none;strokeColor=#FF1F9E;strokeWidth=5;fontFamily=Verdana;fontSize=12;dashed=1;dashPattern=1 4;entryX=0;entryY=0;entryDx=104.37;entryDy=183;entryPerimeter=0;" parent="1" source="I04fydQBAytHWi5Aiypt-9" target="I04fydQBAytHWi5Aiypt-27" edge="1">
          <mxGeometry width="50" height="100" relative="1" as="geometry">
            <mxPoint x="1383" y="703.06" as="sourcePoint" />
            <mxPoint x="1649" y="764" as="targetPoint" />
            <Array as="points">
              <mxPoint x="1420" y="756" />
            </Array>
          </mxGeometry>
        </mxCell>
        <mxCell id="1a8abee3a6cfdf20-9" value="" style="verticalLabelPosition=bottom;html=1;verticalAlign=top;strokeWidth=1;dashed=0;shape=mxgraph.aws3d.internetGateway;fillColor=#ECECEC;strokeColor=#5E5E5E;aspect=fixed;rounded=1;shadow=0;comic=0;fontSize=12;flipH=1;flipV=0;" parent="1" vertex="1">
          <mxGeometry x="139" y="105" width="116.7" height="102.8" as="geometry" />
        </mxCell>
        <mxCell id="1a8abee3a6cfdf20-11" value="" style="verticalLabelPosition=bottom;html=1;verticalAlign=top;strokeWidth=1;dashed=0;shape=mxgraph.aws3d.internetGateway;fillColor=#ECECEC;strokeColor=#5E5E5E;aspect=fixed;rounded=1;shadow=0;comic=0;fontSize=12;flipH=1;flipV=0;" parent="1" vertex="1">
          <mxGeometry x="2302" y="1151" width="116.7" height="102.8" as="geometry" />
        </mxCell>
        <mxCell id="d5ac148becb70bc-8" value="" style="verticalLabelPosition=bottom;html=1;verticalAlign=top;strokeWidth=1;dashed=0;shape=mxgraph.aws3d.dashedArrowlessEdge;aspect=fixed;rounded=1;shadow=0;comic=0;fontFamily=Verdana;fontSize=12" parent="1" vertex="1">
          <mxGeometry x="840" y="564" width="1170.52" height="667" as="geometry" />
        </mxCell>
        <mxCell id="d5ac148becb70bc-9" value="" style="verticalLabelPosition=bottom;html=1;verticalAlign=top;strokeWidth=1;dashed=0;shape=mxgraph.aws3d.dashedArrowlessEdge;aspect=fixed;rounded=1;shadow=0;comic=0;fontFamily=Verdana;fontSize=12" parent="1" vertex="1">
          <mxGeometry x="91" y="996.11" width="1163.31" height="662.89" as="geometry" />
        </mxCell>
        <mxCell id="d5ac148becb70bc-10" value="" style="verticalLabelPosition=bottom;html=1;verticalAlign=top;strokeWidth=1;dashed=0;shape=mxgraph.aws3d.dashedArrowlessEdge;fillColor=#000000;aspect=fixed;rounded=1;shadow=0;comic=0;fontFamily=Verdana;fontSize=12;fontColor=#000000;flipV=1;" parent="1" vertex="1">
          <mxGeometry x="87" y="564" width="753" height="428.12" as="geometry" />
        </mxCell>
        <mxCell id="d5ac148becb70bc-12" value="" style="verticalLabelPosition=bottom;html=1;verticalAlign=top;strokeWidth=1;dashed=0;shape=mxgraph.aws3d.dashedArrowlessEdge;aspect=fixed;rounded=1;shadow=0;comic=0;fontFamily=Verdana;fontSize=12;flipV=1;" parent="1" vertex="1">
          <mxGeometry x="1261" y="1232" width="747.23" height="426.13" as="geometry" />
        </mxCell>
        <mxCell id="1a8abee3a6cfdf20-2" value="" style="verticalLabelPosition=bottom;html=1;verticalAlign=top;strokeWidth=1;dashed=0;shape=mxgraph.aws3d.secureConnection;fillColor=#000000;strokeColor=#ffffff;aspect=fixed;rounded=1;shadow=0;comic=0;fontSize=12" parent="1" vertex="1">
          <mxGeometry x="478.24" y="1917" width="56.99999999999999" height="34" as="geometry" />
        </mxCell>
        <mxCell id="d5ac148becb70bc-14" value="" style="edgeStyle=isometricEdgeStyle;endArrow=none;html=1;labelBackgroundColor=none;strokeWidth=5;fontFamily=Verdana;fontSize=12;dashed=1;dashPattern=1 4;strokeColor=#FF1F9E;" parent="1" edge="1">
          <mxGeometry width="50" height="100" relative="1" as="geometry">
            <mxPoint x="1267" y="1167.02" as="sourcePoint" />
            <mxPoint x="1555" y="820" as="targetPoint" />
            <Array as="points">
              <mxPoint x="1644" y="882" />
            </Array>
          </mxGeometry>
        </mxCell>
        <mxCell id="d5ac148becb70bc-16" value="" style="verticalLabelPosition=bottom;html=1;verticalAlign=top;strokeWidth=1;dashed=0;shape=mxgraph.aws3d.secureConnection;fillColor=#000000;strokeColor=#ffffff;aspect=fixed;rounded=1;shadow=0;comic=0;fontSize=12" parent="1" vertex="1">
          <mxGeometry x="637.24" y="1990" width="56.99999999999999" height="34" as="geometry" />
        </mxCell>
        <mxCell id="I04fydQBAytHWi5Aiypt-1" value="&lt;b&gt;&lt;font style=&quot;font-size: 24px;&quot;&gt;Data + Backup&lt;/font&gt;&lt;/b&gt;" style="text;strokeColor=none;align=center;fillColor=none;html=1;verticalAlign=middle;whiteSpace=wrap;rounded=0;rotation=-30;" parent="1" vertex="1">
          <mxGeometry x="1298.19" y="1299.54" width="164" height="30" as="geometry" />
        </mxCell>
        <mxCell id="I04fydQBAytHWi5Aiypt-2" value="&lt;b&gt;&lt;font style=&quot;font-size: 28px;&quot;&gt;KVK Rekencentrum&lt;/font&gt;&lt;/b&gt;" style="text;strokeColor=none;align=center;fillColor=none;html=1;verticalAlign=middle;whiteSpace=wrap;rounded=0;rotation=-30;" parent="1" vertex="1">
          <mxGeometry x="411" y="690" width="164" height="30" as="geometry" />
        </mxCell>
        <mxCell id="I04fydQBAytHWi5Aiypt-3" value="&lt;b&gt;&lt;font style=&quot;font-size: 24px;&quot;&gt;Back End&lt;/font&gt;&lt;/b&gt;" style="text;strokeColor=none;align=center;fillColor=none;html=1;verticalAlign=middle;whiteSpace=wrap;rounded=0;rotation=-30;" parent="1" vertex="1">
          <mxGeometry x="960.53" y="1105" width="164" height="30" as="geometry" />
        </mxCell>
        <mxCell id="I04fydQBAytHWi5Aiypt-4" value="" style="verticalLabelPosition=bottom;html=1;verticalAlign=top;strokeWidth=1;align=center;outlineConnect=0;dashed=0;outlineConnect=0;shape=mxgraph.aws3d.securityTokenService;fillColor=#ECECEC;strokeColor=#5E5E5E;aspect=fixed;" parent="1" vertex="1">
          <mxGeometry x="-100" y="986" width="180" height="192" as="geometry" />
        </mxCell>
        <mxCell id="I04fydQBAytHWi5Aiypt-5" value="" style="verticalLabelPosition=bottom;html=1;verticalAlign=top;strokeWidth=1;align=center;outlineConnect=0;dashed=0;outlineConnect=0;shape=mxgraph.aws3d.elasticLoadBalancing;fillColor=#ECECEC;strokeColor=#5E5E5E;aspect=fixed;" parent="1" vertex="1">
          <mxGeometry x="-35" y="803.75" width="132" height="126.5" as="geometry" />
        </mxCell>
        <mxCell id="I04fydQBAytHWi5Aiypt-6" value="" style="edgeStyle=isometricEdgeStyle;endArrow=none;html=1;labelBackgroundColor=none;strokeWidth=5;fontFamily=Verdana;fontSize=12" parent="1" target="1a8abee3a6cfdf20-1" edge="1">
          <mxGeometry width="50" height="100" relative="1" as="geometry">
            <mxPoint x="975" y="1099" as="sourcePoint" />
            <mxPoint x="744.37" y="963" as="targetPoint" />
            <Array as="points">
              <mxPoint x="876.19" y="1043" />
            </Array>
          </mxGeometry>
        </mxCell>
        <mxCell id="1a8abee3a6cfdf20-1" value="" style="verticalLabelPosition=bottom;html=1;verticalAlign=top;strokeWidth=1;dashed=0;shape=mxgraph.aws3d.secureConnection;fillColor=#000000;strokeColor=#ffffff;aspect=fixed;rounded=1;shadow=0;comic=0;fontSize=12" parent="1" vertex="1">
          <mxGeometry x="821" y="1019" width="56.99999999999999" height="34" as="geometry" />
        </mxCell>
        <mxCell id="I04fydQBAytHWi5Aiypt-9" value="" style="image;html=1;image=img/lib/clip_art/networking/Firewall_128x128.png;rotation=0;" parent="1" vertex="1">
          <mxGeometry x="844" y="952" width="80" height="80" as="geometry" />
        </mxCell>
        <mxCell id="I04fydQBAytHWi5Aiypt-10" value="" style="edgeStyle=isometricEdgeStyle;endArrow=none;html=1;labelBackgroundColor=none;strokeWidth=5;fontFamily=Verdana;fontSize=12" parent="1" source="I04fydQBAytHWi5Aiypt-11" edge="1">
          <mxGeometry width="50" height="100" relative="1" as="geometry">
            <mxPoint x="1305.31" y="1287" as="sourcePoint" />
            <mxPoint x="1074.68" y="1151" as="targetPoint" />
            <Array as="points" />
          </mxGeometry>
        </mxCell>
        <mxCell id="I04fydQBAytHWi5Aiypt-11" value="" style="verticalLabelPosition=bottom;html=1;verticalAlign=top;strokeWidth=1;dashed=0;shape=mxgraph.aws3d.secureConnection;fillColor=#000000;strokeColor=#ffffff;aspect=fixed;rounded=1;shadow=0;comic=0;fontSize=12" parent="1" vertex="1">
          <mxGeometry x="1151.31" y="1207" width="56.99999999999999" height="34" as="geometry" />
        </mxCell>
        <mxCell id="I04fydQBAytHWi5Aiypt-12" value="" style="image;html=1;image=img/lib/clip_art/networking/Firewall_128x128.png;rotation=0;" parent="1" vertex="1">
          <mxGeometry x="1174.31" y="1140" width="80" height="80" as="geometry" />
        </mxCell>
        <mxCell id="I04fydQBAytHWi5Aiypt-13" value="" style="edgeStyle=isometricEdgeStyle;endArrow=none;html=1;labelBackgroundColor=none;strokeWidth=5;fontFamily=Verdana;fontSize=12" parent="1" edge="1">
          <mxGeometry width="50" height="100" relative="1" as="geometry">
            <mxPoint x="1317.19" y="1297.8899999999999" as="sourcePoint" />
            <mxPoint x="1206" y="1227" as="targetPoint" />
            <Array as="points">
              <mxPoint x="1218.38" y="1241.8899999999999" />
            </Array>
          </mxGeometry>
        </mxCell>
        <mxCell id="I04fydQBAytHWi5Aiypt-14" value="" style="shape=image;html=1;verticalAlign=top;verticalLabelPosition=bottom;labelBackgroundColor=#ffffff;imageAspect=0;aspect=fixed;image=https://cdn1.iconfinder.com/data/icons/unicons-line-vol-3/24/file-question-128.png" parent="1" vertex="1">
          <mxGeometry x="105" y="737" width="128" height="128" as="geometry" />
        </mxCell>
        <mxCell id="I04fydQBAytHWi5Aiypt-15" value="" style="image;aspect=fixed;html=1;points=[];align=center;fontSize=12;image=img/lib/azure2/devops/CloudTest.svg;" parent="1" vertex="1">
          <mxGeometry x="476" y="1042" width="44.96" height="52" as="geometry" />
        </mxCell>
        <mxCell id="I04fydQBAytHWi5Aiypt-16" value="" style="verticalLabelPosition=bottom;html=1;verticalAlign=top;align=center;strokeColor=none;fillColor=#00BEF2;shape=mxgraph.azure.automation;pointerEvents=1;" parent="1" vertex="1">
          <mxGeometry x="922" y="773" width="50" height="45" as="geometry" />
        </mxCell>
        <mxCell id="I04fydQBAytHWi5Aiypt-17" value="" style="shape=image;html=1;verticalAlign=top;verticalLabelPosition=bottom;labelBackgroundColor=#ffffff;imageAspect=0;aspect=fixed;image=https://cdn4.iconfinder.com/data/icons/essentials-74/24/040_-_Tick-128.png" parent="1" vertex="1">
          <mxGeometry x="587" y="971.55" width="40.89" height="40.89" as="geometry" />
        </mxCell>
        <mxCell id="I04fydQBAytHWi5Aiypt-18" value="" style="sketch=0;outlineConnect=0;fontColor=#232F3E;gradientColor=none;fillColor=#01A88D;strokeColor=none;dashed=0;verticalLabelPosition=bottom;verticalAlign=top;align=center;html=1;fontSize=12;fontStyle=0;aspect=fixed;shape=mxgraph.aws4.mainframe_modernization_developer;" parent="1" vertex="1">
          <mxGeometry x="533" y="1000" width="42" height="42" as="geometry" />
        </mxCell>
        <mxCell id="I04fydQBAytHWi5Aiypt-19" value="" style="sketch=0;aspect=fixed;pointerEvents=1;shadow=0;dashed=0;html=1;strokeColor=none;labelPosition=center;verticalLabelPosition=bottom;verticalAlign=top;align=center;fillColor=#00188D;shape=mxgraph.mscae.enterprise.backup_local" parent="1" vertex="1">
          <mxGeometry x="1185" y="1388" width="49" height="50" as="geometry" />
        </mxCell>
        <mxCell id="I04fydQBAytHWi5Aiypt-20" value="" style="shadow=0;dashed=0;html=1;labelPosition=center;verticalLabelPosition=bottom;verticalAlign=top;align=center;outlineConnect=0;shape=mxgraph.veeam.3d.backup_repository;" parent="1" vertex="1">
          <mxGeometry x="1518" y="1192" width="62" height="62" as="geometry" />
        </mxCell>
        <mxCell id="I04fydQBAytHWi5Aiypt-21" value="" style="image;aspect=fixed;html=1;points=[];align=center;fontSize=12;image=img/lib/azure2/devops/CloudTest.svg;" parent="1" vertex="1">
          <mxGeometry x="771" y="1245" width="44.96" height="52" as="geometry" />
        </mxCell>
        <mxCell id="I04fydQBAytHWi5Aiypt-22" value="" style="sketch=0;outlineConnect=0;fontColor=#232F3E;gradientColor=none;fillColor=#01A88D;strokeColor=none;dashed=0;verticalLabelPosition=bottom;verticalAlign=top;align=center;html=1;fontSize=12;fontStyle=0;aspect=fixed;shape=mxgraph.aws4.mainframe_modernization_developer;" parent="1" vertex="1">
          <mxGeometry x="828" y="1203" width="42" height="42" as="geometry" />
        </mxCell>
        <mxCell id="I04fydQBAytHWi5Aiypt-23" value="" style="shape=image;html=1;verticalAlign=top;verticalLabelPosition=bottom;labelBackgroundColor=#ffffff;imageAspect=0;aspect=fixed;image=https://cdn4.iconfinder.com/data/icons/essentials-74/24/040_-_Tick-128.png" parent="1" vertex="1">
          <mxGeometry x="882" y="1174.55" width="40.89" height="40.89" as="geometry" />
        </mxCell>
        <mxCell id="I04fydQBAytHWi5Aiypt-24" value="" style="verticalLabelPosition=bottom;html=1;verticalAlign=top;align=center;strokeColor=none;fillColor=#00BEF2;shape=mxgraph.azure.automation;pointerEvents=1;" parent="1" vertex="1">
          <mxGeometry x="1217" y="976" width="50" height="45" as="geometry" />
        </mxCell>
        <mxCell id="I04fydQBAytHWi5Aiypt-25" value="&lt;b&gt;&lt;font style=&quot;font-size: 24px;&quot;&gt;Front End&lt;/font&gt;&lt;/b&gt;" style="text;strokeColor=none;align=center;fillColor=none;html=1;verticalAlign=middle;whiteSpace=wrap;rounded=0;rotation=-30;" parent="1" vertex="1">
          <mxGeometry x="664" y="890" width="164" height="30" as="geometry" />
        </mxCell>
        <mxCell id="I04fydQBAytHWi5Aiypt-26" value="" style="verticalLabelPosition=bottom;html=1;verticalAlign=top;strokeWidth=1;align=center;outlineConnect=0;dashed=0;outlineConnect=0;shape=mxgraph.aws3d.sqs;fillColor=#ECECEC;strokeColor=#5E5E5E;aspect=fixed;" parent="1" vertex="1">
          <mxGeometry x="64" y="1105" width="184" height="212.75" as="geometry" />
        </mxCell>
        <mxCell id="I04fydQBAytHWi5Aiypt-27" value="&lt;font style=&quot;font-size: 27px;&quot;&gt;&lt;b style=&quot;font-size: 27px;&quot;&gt;Business vraagstuk:&lt;br style=&quot;font-size: 27px;&quot;&gt;&quot;Wat zijn de security&amp;nbsp; functies?&quot;&lt;/b&gt;&lt;br style=&quot;font-size: 27px;&quot;&gt;&lt;/font&gt;" style="shape=callout;whiteSpace=wrap;html=1;perimeter=calloutPerimeter;position2=0;fontSize=27;size=56;position=0.03;" parent="1" vertex="1">
          <mxGeometry x="1553" y="568" width="280" height="259" as="geometry" />
        </mxCell>
      </root>
    </mxGraphModel>
  </diagram>
</mxfile>
